<svg width="121" height="20" viewBox="0 0 121 20" fill="none" xmlns="http://www.w3.org/2000/svg">
<path d="M11.9723 10.2867C12.9151 10.3598 13.7348 10.7601 14.4352 11.4835C15.1318 12.2109 15.482 13.2076 15.482 14.4776C15.482 16.0362 14.9663 17.2792 13.9311 18.2067C12.8959 19.1303 11.4104 19.5959 9.46697 19.5959H0V1.36232H9.44388C11.1141 1.36232 12.4495 1.81643 13.4577 2.72465C14.466 3.63286 14.9663 4.83741 14.9663 6.34212C14.9663 7.48509 14.6507 8.3933 14.0157 9.06292C13.3808 9.73254 12.6996 10.1058 11.9761 10.1789V10.2867H11.9723ZM4.49104 8.89744H8.40867C9.07829 8.89744 9.61321 8.71272 10.0134 8.33943C10.4137 7.96613 10.6138 7.47354 10.6138 6.8578C10.6138 6.29594 10.4175 5.84183 10.0288 5.49548C9.64015 5.14912 9.15525 4.9798 8.57415 4.9798H4.49104V8.89744ZM8.6819 15.9746C9.39 15.9746 9.93647 15.7937 10.329 15.432C10.7177 15.0702 10.914 14.5699 10.914 13.935C10.914 13.3346 10.7138 12.8613 10.3136 12.5072C9.91338 12.1532 9.3977 11.9761 8.76272 11.9761H4.49104V15.9746H8.6819ZM31.0717 19.5921H26.7192V18.2875C25.6301 19.4304 24.2331 20 22.5283 20C20.9312 20 19.6497 19.4766 18.6761 18.4337C17.7063 17.3908 17.2214 16.0169 17.2214 14.3121V5.93419H21.547V13.3885C21.547 14.1851 21.7663 14.8355 22.2012 15.3358C22.6361 15.8361 23.1979 16.0824 23.8868 16.0824C24.7758 16.0824 25.4685 15.7706 25.9687 15.1434C26.469 14.5161 26.7153 13.5617 26.7153 12.2725V5.93419H31.0678V19.5921H31.0717ZM44.4794 19.5921H32.9535V18.7724L38.372 9.39003H33.0882V5.93419H44.4139V6.7539L38.9954 16.1362H44.4794V19.5921ZM57.8871 19.5921H46.3612V18.7724L51.7797 9.39003H46.4921V5.93419H57.8178V6.7539L52.3993 16.1362H57.8832V19.5921H57.8871ZM64.36 9.14374H72.2337V13.0614H64.36V19.5921H59.869V1.36232H72.9572V5.30691H64.36V9.14374ZM104.133 13.8772H94.1194C94.3772 15.5705 95.6433 16.5172 97.5598 16.5172C99.0684 16.5172 100.558 15.9246 101.674 15.0664L103.344 17.9604C101.816 19.2727 99.8342 20 97.5598 20C92.9803 20 89.8477 17.2099 89.8477 12.7612C89.8477 10.6561 90.5481 8.92438 91.9412 7.56205C93.3382 6.19973 95.0507 5.52242 97.0826 5.52242C99.0607 5.52242 100.719 6.18434 102.062 7.50818C103.405 8.83202 104.094 10.583 104.129 12.7612V13.8772H104.133ZM95.3162 9.63248C94.7736 10.0135 94.4003 10.5407 94.2002 11.2103H99.8342C99.6341 10.5022 99.2916 9.96729 98.799 9.60554C98.3103 9.24379 97.7368 9.06292 97.0865 9.06292C96.4515 9.06292 95.8627 9.25149 95.3162 9.63248ZM88.2121 13.8772H78.1987C78.4565 15.5705 79.7227 16.5172 81.6391 16.5172C83.1477 16.5172 84.637 15.9246 85.753 15.0664L87.4232 17.9604C85.8954 19.2727 83.9135 20 81.6391 20C77.0596 20 73.927 17.2099 73.927 12.7612C73.927 10.6561 74.6274 8.92438 76.0205 7.56205C77.4175 6.19973 79.13 5.52242 81.1619 5.52242C83.14 5.52242 84.7986 6.18434 86.1417 7.50818C87.4848 8.83202 88.1737 10.583 88.2083 12.7612V13.8772H88.2121ZM79.3955 9.63248C78.8529 10.0135 78.4796 10.5407 78.2795 11.2103H83.9135C83.7134 10.5022 83.3709 9.96729 82.8783 9.60554C82.3896 9.24379 81.8162 9.06292 81.1658 9.06292C80.527 9.06292 79.9382 9.25149 79.3955 9.63248ZM120.977 19.5921H116.625V18.503C115.516 19.4997 114.104 20 112.38 20C110.529 20 108.955 19.3227 107.658 17.9719C106.361 16.6211 105.711 14.8817 105.711 12.7612C105.711 10.6561 106.361 8.92438 107.658 7.56205C108.955 6.19973 110.529 5.52242 112.38 5.52242C114.104 5.52242 115.52 6.02271 116.625 7.01943V0H120.977V19.5921ZM115.632 15.3088C116.294 14.6469 116.625 13.8003 116.625 12.7651C116.625 11.7491 116.294 10.9063 115.632 10.2328C114.97 9.56321 114.185 9.22455 113.277 9.22455C112.314 9.22455 111.526 9.55551 110.91 10.2174C110.294 10.8794 109.986 11.726 109.986 12.7612C109.986 13.8118 110.294 14.6662 110.91 15.3204C111.526 15.9746 112.314 16.3017 113.277 16.3017C114.185 16.3017 114.97 15.9708 115.632 15.3088Z" fill="white"/>
</svg>
