<svg width="28" height="20" viewBox="0 0 28 20" fill="none" xmlns="http://www.w3.org/2000/svg">
<path d="M13.6006 13.0985C7.32296 13.0985 2.21228 13.1589 2.21228 13.2193C2.21228 13.2998 7.30284 13.34 13.6006 13.34C19.8984 13.34 24.989 13.2796 24.989 13.2193C24.989 13.1589 19.8783 13.0985 13.6006 13.0985Z" fill="white"/>
<path d="M21.1661 10.2214H20.5423L18.0071 1.73039L15.3713 10.2214H14.7475L12.3532 0.885314H12.7757L15.0695 9.81894H15.0896L17.8461 0.925556H18.2083L20.8643 9.81894L23.2989 0.885314H23.7214L21.1661 10.2214ZM22.7355 0C22.4739 0 22.2526 0.181088 22.152 0.462778L20.7033 6.2978L18.8723 0H17.4236C17.1822 0 16.9608 0.160967 16.8401 0.462778L15.15 6.2978L13.7415 0.482899V0.462778C13.6409 0.181088 13.4196 0 13.158 0H10.985L13.9628 11.167L14.0031 11.328H16.0956L17.9467 5.21128L19.7979 11.328H21.8904L24.9287 0.0201212H22.7355V0ZM9.51614 5.97587C9.51614 7.22336 9.53626 8.53121 8.53022 9.53724C7.9266 10.1409 7.02116 10.4829 5.95476 10.4829H3.19822V0.865194H5.95476C7.02116 0.865194 7.90648 1.18713 8.53022 1.81087C9.53626 2.81691 9.53626 4.02415 9.51614 5.29176V5.97587ZM9.33505 1.10664C8.61071 0.382295 7.56442 0 6.31694 0H2.17206V11.3079H6.31694C7.56442 11.3079 8.61071 10.9256 9.33505 10.2012C10.5222 9.0141 10.5021 7.48493 10.5021 6.01611V5.21128C10.5021 3.70222 10.5021 2.29377 9.33505 1.10664ZM7.5443 8.41048C7.20225 8.83302 6.75959 9.0141 6.11573 9.0141H4.70727V2.31389H6.11573C6.75959 2.31389 7.20225 2.49498 7.5443 2.91751C7.88636 3.34005 7.96684 4.00403 7.96684 5.61369C7.94672 7.22336 7.90648 7.96782 7.5443 8.41048ZM8.24853 2.09256C7.70527 1.5493 6.92056 1.26761 5.97488 1.26761H3.60063V10.0403H5.95476C6.92056 10.0403 7.70527 9.75857 8.22841 9.21531C9.11372 8.33 9.11372 7.18311 9.0936 5.95575V5.27164C9.11372 4.04428 9.13385 2.97787 8.24853 2.09256Z" fill="white"/>
<path d="M3.76255 18.7123L4.20521 15.7747L4.92955 15.6741L4.80882 16.499H5.53317L5.45268 17.1026H4.72834L4.48689 18.672C4.46677 18.7726 4.50702 18.8129 4.62774 18.8129C4.76858 18.8129 4.94967 18.7525 5.11063 18.6922L5.2716 19.1751C5.03015 19.2958 4.72834 19.3964 4.38629 19.3964C3.92352 19.3964 3.70219 19.1348 3.76255 18.7123ZM25.2514 18.7123L25.694 15.7747L26.4184 15.6741L26.2976 16.499H27.022L26.9415 17.1026H26.2171L25.9757 18.672C25.9556 18.7726 25.9958 18.8129 26.1165 18.8129C26.2574 18.8129 26.4385 18.7525 26.5994 18.6922L26.7604 19.1751C26.519 19.2958 26.2171 19.3964 25.8751 19.3964C25.4123 19.3964 25.191 19.1348 25.2514 18.7123ZM7.68607 17.324C7.68607 17.3039 7.70619 17.1228 7.5251 17.1228C7.34402 17.1228 6.94161 17.3039 6.68004 17.4447L6.39835 19.336H5.69413L6.11666 16.5393L6.72028 16.4387V16.7807C7.08245 16.5795 7.5251 16.4186 7.86715 16.4186C8.26957 16.4186 8.41041 16.6801 8.43053 16.9819C8.43053 17.1026 8.43053 17.163 8.41041 17.2636L8.1086 19.3159H7.40438L7.68607 17.324ZM9.53717 18.5111C9.51705 18.672 9.49692 18.8129 9.75849 18.8129C10.0603 18.8129 10.4828 18.672 10.845 18.491L11.006 19.0342C10.6639 19.2354 10.1408 19.4165 9.65789 19.4165C8.89331 19.4165 8.73234 18.994 8.81282 18.4105L8.93355 17.5453C9.03415 16.8813 9.33596 16.4789 10.2011 16.4789C10.7444 16.4789 11.1267 16.7606 11.1468 17.2234C11.1669 17.7264 10.845 18.0282 10.0603 18.2696C9.71825 18.3702 9.65789 18.3904 9.51704 18.4306L9.53717 18.5111ZM10.503 17.2234C10.503 17.1026 10.3822 17.002 10.2011 17.002C9.87921 17.002 9.73837 17.2032 9.69813 17.4648L9.65789 17.7465C9.75849 17.7264 9.77861 17.7063 10.0804 17.6258C10.3822 17.5252 10.503 17.4045 10.503 17.2234ZM22.7363 17.1026C22.4143 17.2837 22.193 17.4246 21.9113 17.6057L21.6498 19.3561H20.9455L21.3681 16.5594L21.9717 16.4588L21.9516 16.8813C22.1528 16.7405 22.4345 16.5594 22.6759 16.4588L22.7363 17.1026ZM22.7564 19.2153L22.8771 18.6922C23.0985 18.7726 23.4003 18.833 23.6819 18.833C24.0039 18.833 24.0642 18.7726 24.0844 18.5916C24.1045 18.4105 24.0844 18.3501 23.6417 18.1489C23.0381 17.8471 22.9576 17.6459 23.018 17.2033C23.0985 16.6399 23.3198 16.4588 24.0844 16.4588C24.3459 16.4588 24.7081 16.5192 24.9495 16.5996L24.8489 17.1429C24.6276 17.0825 24.3057 17.0423 24.1045 17.0423C23.8228 17.0423 23.7423 17.0624 23.7021 17.2636C23.6819 17.4648 23.7222 17.5051 24.0441 17.666C24.7081 18.0282 24.8288 18.1288 24.7685 18.5714C24.6679 19.2153 24.4667 19.4165 23.6618 19.4165C23.4003 19.3964 23.018 19.336 22.7564 19.2153ZM13.7826 19.2153L13.9033 18.6922C14.1247 18.7726 14.4265 18.833 14.7082 18.833C15.0301 18.833 15.0905 18.7726 15.1106 18.5916C15.1307 18.4105 15.1106 18.3501 14.6679 18.1489C14.0643 17.8471 13.9838 17.6459 14.0442 17.2033C14.1247 16.6399 14.346 16.4588 15.1106 16.4588C15.3721 16.4588 15.7343 16.5192 15.9758 16.5996L15.8752 17.1429C15.6538 17.0825 15.3319 17.0423 15.1307 17.0423C14.849 17.0423 14.7685 17.0624 14.7283 17.2636C14.7082 17.4648 14.7484 17.5051 15.0703 17.666C15.7343 18.0282 15.855 18.1288 15.7947 18.5714C15.6941 19.2153 15.4929 19.4165 14.688 19.4165C14.4265 19.3964 14.0241 19.336 13.7826 19.2153ZM11.4084 19.2153L11.5291 18.6922C11.7504 18.7726 12.0522 18.833 12.3339 18.833C12.6559 18.833 12.7162 18.7726 12.7363 18.5916C12.7565 18.4105 12.7363 18.3501 12.2937 18.1489C11.6901 17.8471 11.6096 17.6459 11.6699 17.2033C11.7504 16.6399 11.9718 16.4588 12.7363 16.4588C12.9979 16.4588 13.3601 16.5192 13.6015 16.5996L13.5009 17.1429C13.2796 17.0825 12.9577 17.0423 12.7565 17.0423C12.4748 17.0423 12.3943 17.0624 12.354 17.2636C12.3339 17.4648 12.3742 17.5051 12.6961 17.666C13.3601 18.0282 13.4808 18.1288 13.4204 18.5714C13.3198 19.2153 13.1186 19.4165 12.3138 19.4165C12.0522 19.3964 11.6498 19.336 11.4084 19.2153ZM1.22736 16.5192L1.32796 15.7948H2.87725L2.97785 15.1711H0.724342L0 20H0.704221L1.12675 17.1228H2.6358L2.29375 19.3561H2.99797L3.4205 16.5192H1.22736ZM18.511 16.5192L18.6116 15.7948H20.1608L20.2614 15.1711H18.0079L17.2836 20H17.9878L18.4104 17.1228H19.8993L19.5572 19.3561H20.2614L20.684 16.5192H18.511Z" fill="white"/>
</svg>
