<svg width="89" height="20" viewBox="0 0 89 20" fill="none" xmlns="http://www.w3.org/2000/svg">
<path fill-rule="evenodd" clip-rule="evenodd" d="M32.3842 14.1795C32.3842 11.1795 30.8971 9.53848 25.5125 8.66661L25.5125 10.7949C29.2304 11.4359 30.1791 12.4102 30.1535 14.2564C30.1278 16.0256 28.8458 17.8205 24.7689 17.8205C21.333 17.8205 19.3586 16 18.9484 13.4615H16.4612C16.7689 16.5897 19.3842 20 24.6919 20C30.1022 20 32.3842 16.9744 32.3842 14.1795ZM17.0509 5.43591C17.0509 9.25638 20.5124 10.3846 23.3842 10.641L23.3842 8.48713C21.0252 8.17945 19.2816 7.33335 19.2816 5.4615C19.2816 3.61529 21.1021 2.17945 24.1021 2.17945C26.7945 2.17945 28.5893 3.51279 29.0252 5.5897H31.5894C31.3586 3.359 29.2048 0 24.1022 0C20.256 0 17.0509 2.10251 17.0509 5.43591ZM7.73576e-05 0.384725V2.61543H14.0514V0.384725H7.73576e-05ZM14.0514 8.89754H7.73576e-05V11.1027H14.0514V8.89754ZM14.0514 17.3847H7.73576e-05V19.6155H14.0514V17.3847ZM37.3327 0.384725V19.6155H35.102V0.384725H37.3327ZM39.461 2.61543V0.384725H43.2301C46.8455 0.384725 49.1532 2.64111 49.1532 5.74369C49.1532 8.84627 46.7174 11.1027 43.2301 11.1027H39.461V8.87184H43.2301C45.6148 8.87184 46.9224 7.58985 46.9224 5.74367C46.9224 3.89749 45.6148 2.61541 43.2301 2.61541L39.461 2.61543ZM54.076 0.384725H51.8452V19.6155H54.076V0.384725ZM66.4606 5.74369C66.4606 2.64111 64.1529 0.384725 60.5375 0.384725H56.2042V2.61541H60.4606C62.8452 2.61541 64.1016 4.0257 64.1016 5.74367C64.1016 7.48723 62.8452 8.87184 60.4606 8.87184H56.2042V11.1027H60.5375C64.0247 11.1027 66.4606 8.84627 66.4606 5.74369ZM59.8709 13.0257L64.2298 19.6155H67.0247L62.5375 13.0257H59.8709ZM69.6654 0.384725H71.8962V19.6155H69.6654V0.384725ZM74.2803 0.384725V2.61543H88.8443V0.384725H74.2803ZM82.6905 19.6155V4.69235H80.4597V19.6155H82.6905Z" fill="white"/>
</svg>
