<svg width="58" height="20" viewBox="0 0 58 20" fill="none" xmlns="http://www.w3.org/2000/svg">
<path d="M57.1361 0L15.3361 17.8C11.8694 19.2667 8.95834 20 6.60278 20C3.93611 20 2.00278 19.0667 0.802778 17.2C0.0472222 16 -0.175 14.4778 0.136111 12.6333C0.447222 10.7889 1.26944 8.82222 2.60278 6.73333C3.71389 5.04444 5.53611 2.82222 8.06945 0.0666666C7.18056 1.48889 6.55834 2.95556 6.20278 4.46667C5.53611 7.31111 6.13611 9.4 8.00278 10.7333C8.89167 11.3556 10.1139 11.6667 11.6694 11.6667C12.9139 11.6667 14.3139 11.4667 15.8694 11.0667L57.1361 0Z" fill="white"/>
</svg>
